# xmcd
#
# Track frame offsets:
#	150
#	11797
#	32902
#	55517
#	71645
#	88469
#	120652
#	133432
#	159134
#	178216
#
# Disc length: 2786 seconds
# Revision: 0
# Processed by: cddbd v1.5.2PL0 Copyright (c) Steve Scherf et al.
# Submitted via: dBpowerAMP V12.0
#
DISCID=8d0ae00a
DTITLE=Kaz Hawkins Band - Feelin' Good
DYEAR=2016
DGENRE=Blues
TTITLE0=Pray
TTITLE1=It Ain't You
TTITLE2=Don't Make Mama Cry
TTITLE3=This Is Me
TTITLE4=Belfast Town
TTITLE5=Feelin' Good
TTITLE6=Don't Run Away
TTITLE7=Because You Love Me
TTITLE8=Soul Superstar
TTITLE9=I Just Wanna Make Love To You
EXTD=
EXTT0=
EXTT1=
EXTT2=
EXTT3=
EXTT4=
EXTT5=
EXTT6=
EXTT7=
EXTT8=
EXTT9=
PLAYORDER=
